# xmcd CD database file
#
# Track frame offsets:
#	150
#	9758
#	21516
#	36484
#	46481
#	60483
#	73056
#	84436
#	96280
#	113092
#	122409
#	135555
#
# Disc length: 1962 seconds
#
# Revision: 1
# Processed by: cddbd v1.5.2PL0 Copyright (c) Steve Scherf et al.
# Submitted via: CDex 1.70beta2
#
DISCID=9a07a80c
DTITLE=Nelson, Willie, (USA-04-cty) - Original American Classics Vol.1
DYEAR=2004
DGENRE=Country
TTITLE0=Let's pretend
TTITLE1=I Hope So
TTITLE2=And So Will You Love Me
TTITLE3=A New Way To Cry
TTITLE4=So Much To Do
TTITLE5=Any Old Arms Won't Do
TTITLE6=I'm Going To Loose A Lot Of Teardrops
TTITLE7=Happiness Lives Next Door
TTITLE8=I Let My Mind Wander
TTITLE9=One Step Beyond
TTITLE10=You'll Always Have Someone
TTITLE11=Night Life
EXTD=YEAR: 2004
EXTT0=
EXTT1=
EXTT2=
EXTT3=
EXTT4=
EXTT5=
EXTT6=
EXTT7=
EXTT8=
EXTT9=
EXTT10=
EXTT11=
PLAYORDER=
